# xmcd
#
# Track frame offsets:
#	150
#	13930
#	27272
#	42005
#	54347
#	72365
#	87040
#	103555
#	114917
#	125812
#
# Disc length: 1858 seconds
#
# Revision: 1
# Processed by: cddbd v1.5.2PL0 Copyright (c) Steve Scherf et al.
# Submitted via: audiograbber 1.83.01
#
DISCID=7b07400a
DTITLE=Various Artist - Country Love Songs  [CD2)
DYEAR=1900
DGENRE=Oldies
TTITLE0=Willie Nelson - Have I Told You Lately That I Love You?
TTITLE1=Waylon Jennings - Amanda
TTITLE2=Ronnie Milsap - A Woman In Love
TTITLE3=Eddy Raven - You're Never Too Old For Young Love
TTITLE4=Earl Thomas Conley - What She Is (Is A Woman In Love)
TTITLE5=Steve Wariner - Lonely Women Make Good Lovers
TTITLE6=Michael Johnson - Give Me Wings
TTITLE7=Jerry Reed - My Kinda Love
TTITLE8=Charlie Rich - There Won't Be Anymore
TTITLE9=Waylon Jennings and Willie Nelson - Good Hearted Woman
EXTD=
EXTT0=
EXTT1=
EXTT2=
EXTT3=
EXTT4=
EXTT5=
EXTT6=
EXTT7=
EXTT8=
EXTT9=
PLAYORDER=
